# xmcd CD database file
#
# Track frame offsets:
#	150
#	18614
#	28451
#	58291
#	79668
#	104163
#	118726
#	137136
#	157731
#	180662
#	203700
#	237497
#	251596
#	263525
#	283973
#	303243
#
# Disc length: 4302 seconds
#
# Revision: 0
# Processed by: cddbd v1.5.2PL0 Copyright (c) Steve Scherf et al.
# Submitted via: CDex 1.51
#
DISCID=eb10cc10
DTITLE=Steve Coleman - Invisible Paths - First Scattering
DYEAR=2007
DGENRE=Jazz
TTITLE0=Ascending Numeration - Reformed
TTITLE1=Shift
TTITLE2=Possession of Images
TTITLE3=Negative Secondary
TTITLE4=The Witness
TTITLE5=Invisible Paths
TTITLE6=Fudamental Disturbance I
TTITLE7=Fecundation - 070118
TTITLE8=Embodiment
TTITLE9=Facing West
TTITLE10=Clouds
TTITLE11=Black at The Crib
TTITLE12=Cardinal-Fixed-Mutable
TTITLE13=Fundamental Disturbance II
TTITLE14=Individualization
TTITLE15=Fecudation - 070118 (Another View)
EXTD=YEAR: 2007
EXTT0=
EXTT1=
EXTT2=
EXTT3=
EXTT4=
EXTT5=
EXTT6=
EXTT7=
EXTT8=
EXTT9=
EXTT10=
EXTT11=
EXTT12=
EXTT13=
EXTT14=
EXTT15=
PLAYORDER=
